<svg width="460" height="188" viewBox="0 0 460 188" fill="none" xmlns="http://www.w3.org/2000/svg" role="img" aria-label="Most used languages">
<style>
  :root { --bg:#0d1117; --bd:#30363d; --ti:#58a6ff; --fg:#c9d1d9; }
  .title { font:600 15px 'Segoe UI',Ubuntu,sans-serif; fill:var(--ti); }
  .lg { font:400 12px 'Segoe UI',Ubuntu,sans-serif; fill:var(--fg); }
  .lp { font:600 12px 'Segoe UI',Ubuntu,sans-serif; fill:var(--fg); text-anchor:end; }
</style>
<rect x=".5" y=".5" width="459" height="187" rx="6" fill="var(--bg)" stroke="var(--bd)"/>
<text x="25" y="30" class="title">Most Used Languages</text>
<clipPath id="r"><rect x="25" y="46" width="410" height="9" rx="4.5"/></clipPath>
<g clip-path="url(#r)"><rect x="25.0" y="46" width="242.2" height="9" fill="#DA5B0B"/><rect x="267.2" y="46" width="73.9" height="9" fill="#663399"/><rect x="341.1" y="46" width="31.5" height="9" fill="#3572A5"/><rect x="372.6" y="46" width="30.9" height="9" fill="#A97BFF"/><rect x="403.5" y="46" width="9.9" height="9" fill="#3178c6"/><rect x="413.4" y="46" width="8.6" height="9" fill="#f1e05a"/><rect x="422.0" y="46" width="8.2" height="9" fill="#e34c26"/><rect x="430.2" y="46" width="4.8" height="9" fill="#F05138"/></g>
<g transform="translate(28,80)"><circle cx="0" cy="-4" r="5" fill="#DA5B0B"/><text x="12" y="0" class="lg">Jupyter Notebook</text><text x="195" y="0" class="lp">58.7%</text></g><g transform="translate(243,80)"><circle cx="0" cy="-4" r="5" fill="#663399"/><text x="12" y="0" class="lg">CSS</text><text x="195" y="0" class="lp">17.9%</text></g><g transform="translate(28,104)"><circle cx="0" cy="-4" r="5" fill="#3572A5"/><text x="12" y="0" class="lg">Python</text><text x="195" y="0" class="lp">7.6%</text></g><g transform="translate(243,104)"><circle cx="0" cy="-4" r="5" fill="#A97BFF"/><text x="12" y="0" class="lg">Kotlin</text><text x="195" y="0" class="lp">7.5%</text></g><g transform="translate(28,128)"><circle cx="0" cy="-4" r="5" fill="#3178c6"/><text x="12" y="0" class="lg">TypeScript</text><text x="195" y="0" class="lp">2.4%</text></g><g transform="translate(243,128)"><circle cx="0" cy="-4" r="5" fill="#f1e05a"/><text x="12" y="0" class="lg">JavaScript</text><text x="195" y="0" class="lp">2.1%</text></g><g transform="translate(28,152)"><circle cx="0" cy="-4" r="5" fill="#e34c26"/><text x="12" y="0" class="lg">HTML</text><text x="195" y="0" class="lp">2.0%</text></g><g transform="translate(243,152)"><circle cx="0" cy="-4" r="5" fill="#F05138"/><text x="12" y="0" class="lg">Swift</text><text x="195" y="0" class="lp">1.2%</text></g>
</svg>