<svg width="480" height="220" viewBox="0 0 480 220" fill="none" xmlns="http://www.w3.org/2000/svg" role="img" aria-label="GitHub stats for Sagar Srivastava">
<style>
  :root { --bg:#0d1117; --bd:#30363d; --ti:#58a6ff; --lbl:#c9d1d9; --ic:#58a6ff; --rk:#58a6ff; }
  .title { font:600 17px 'Segoe UI',Ubuntu,sans-serif; fill:var(--ti); }
  .lbl { font:400 13px 'Segoe UI',Ubuntu,sans-serif; fill:var(--lbl); }
  .val { font:600 13px 'Segoe UI',Ubuntu,sans-serif; fill:var(--lbl); text-anchor:end; }
  .rank { font:800 26px 'Segoe UI',Ubuntu,sans-serif; fill:var(--rk); text-anchor:middle; }
  .rankpct { font:400 10px 'Segoe UI',Ubuntu,sans-serif; fill:var(--lbl); text-anchor:middle; opacity:.75; }
  /* Base state is the FINAL state so the card is correct even where CSS
     animation does not run (static renderers, some proxies). */
  .ring { stroke-dasharray:251.3; stroke-dashoffset:54.5; animation:grow 1.4s ease-out forwards; }
  @keyframes grow { from { stroke-dashoffset:251.3; } to { stroke-dashoffset:54.5; } }
</style>
<rect x=".5" y=".5" width="479" height="219" rx="6" fill="var(--bg)" stroke="var(--bd)"/>
<g transform="translate(25,32)"><text class="title">Sagar Srivastava's GitHub Stats</text><g transform="translate(0,40)" class="row"><svg x="0" y="-11" width="15" height="15" viewBox="0 0 16 16" fill="var(--ic)"><path d="M8 .25a.75.75 0 0 1 .673.418l1.882 3.815 4.21.612a.75.75 0 0 1 .416 1.279l-3.046 2.97.719 4.192a.75.75 0 0 1-1.088.791L8 12.347l-3.766 1.98a.75.75 0 0 1-1.088-.79l.72-4.194L.818 6.374a.75.75 0 0 1 .416-1.28l4.21-.611L7.327.668A.75.75 0 0 1 8 .25Z"/></svg><text x="26" y="0" class="lbl">Total Stars Earned</text><text x="250" y="0" class="val">13</text></g><g transform="translate(0,66)" class="row"><svg x="0" y="-11" width="15" height="15" viewBox="0 0 16 16" fill="var(--ic)"><path d="M11.93 8.5a4.002 4.002 0 0 1-7.86 0H.75a.75.75 0 0 1 0-1.5h3.32a4.002 4.002 0 0 1 7.86 0h3.32a.75.75 0 0 1 0 1.5Zm-1.43-.75a2.5 2.5 0 1 0-5 0 2.5 2.5 0 0 0 5 0Z"/></svg><text x="26" y="0" class="lbl">Total Commits</text><text x="250" y="0" class="val">6k</text></g><g transform="translate(0,92)" class="row"><svg x="0" y="-11" width="15" height="15" viewBox="0 0 16 16" fill="var(--ic)"><path d="M1.5 3.25a2.25 2.25 0 1 1 3 2.122v5.256a2.251 2.251 0 1 1-1.5 0V5.372A2.25 2.25 0 0 1 1.5 3.25Zm5.677-.177L9.573.677A.25.25 0 0 1 10 .854V2.5h1A2.5 2.5 0 0 1 13.5 5v5.628a2.251 2.251 0 1 1-1.5 0V5a1 1 0 0 0-1-1h-1v1.646a.25.25 0 0 1-.427.177L7.177 3.427a.25.25 0 0 1 0-.354Z"/></svg><text x="26" y="0" class="lbl">Total PRs</text><text x="250" y="0" class="val">875</text></g><g transform="translate(0,118)" class="row"><svg x="0" y="-11" width="15" height="15" viewBox="0 0 16 16" fill="var(--ic)"><path d="M8 9.5a1.5 1.5 0 1 0 0-3 1.5 1.5 0 0 0 0 3Z M8 0a8 8 0 1 1 0 16A8 8 0 0 1 8 0ZM1.5 8a6.5 6.5 0 1 0 13 0 6.5 6.5 0 0 0-13 0Z"/></svg><text x="26" y="0" class="lbl">Total Issues</text><text x="250" y="0" class="val">165</text></g><g transform="translate(0,144)" class="row"><svg x="0" y="-11" width="15" height="15" viewBox="0 0 16 16" fill="var(--ic)"><path d="M1.75 1h12.5c.966 0 1.75.784 1.75 1.75v8.5A1.75 1.75 0 0 1 14.25 13H8.06l-2.573 2.573A1.458 1.458 0 0 1 3 14.543V13H1.75A1.75 1.75 0 0 1 0 11.25v-8.5C0 1.784.784 1 1.75 1Z"/></svg><text x="26" y="0" class="lbl">Code Reviews</text><text x="250" y="0" class="val">43</text></g><g transform="translate(0,170)" class="row"><svg x="0" y="-11" width="15" height="15" viewBox="0 0 16 16" fill="var(--ic)"><path d="M2 2.5A2.5 2.5 0 0 1 4.5 0h8.75a.75.75 0 0 1 .75.75v12.5a.75.75 0 0 1-.75.75h-2.5a.75.75 0 0 1 0-1.5h1.75v-2h-8a1 1 0 0 0-.714 1.7.75.75 0 1 1-1.072 1.05A2.495 2.495 0 0 1 2 11.5Z"/></svg><text x="26" y="0" class="lbl">Repositories</text><text x="250" y="0" class="val">42</text></g></g>
<g transform="translate(390,110)">
  <circle cx="0" cy="0" r="40" fill="none" stroke="var(--bd)" stroke-width="6"/>
  <circle cx="0" cy="0" r="40" fill="none" stroke="var(--rk)" stroke-width="6"
          stroke-linecap="round" class="ring" transform="rotate(-90)"/>
  <text class="rank" y="2">A</text>
  <text class="rankpct" y="18">top 21.7%</text>
</g>
</svg>